<svg width="948" height="153" viewBox="0 0 948 153" fill="none" xmlns="http://www.w3.org/2000/svg">
<path d="M34.7402 48.7613L1.59429 98.9161C1.15229 99.5849 1.63753 100.476 2.43915 100.467L22.5334 100.255C22.8601 100.251 23.1644 100.088 23.3486 99.8187L48.1668 63.4812L36.3559 48.6887C35.9323 48.1582 35.1145 48.195 34.7402 48.7613Z" fill="#20C6D4" fill-opacity="0.8"/>
<path d="M92.2035 101.517L72.5961 101.724C72.2685 101.728 71.9599 101.571 71.7702 101.304L35.1107 49.6887C34.6432 49.0305 35.1081 48.1183 35.9154 48.1097L57.5022 47.8812L93.019 99.9534C93.469 100.613 93.0021 101.508 92.2035 101.517Z" fill="#20C6D4"/>
<path d="M738.296 30.224H748.792V122H738.296V30.224ZM716.664 123.28C707.875 123.28 701.048 120.421 696.184 114.704C691.32 108.987 688.888 100.667 688.888 89.744C688.888 82.2347 689.997 76.0053 692.216 71.056C694.435 66.0213 697.635 62.2667 701.816 59.792C705.997 57.232 710.947 55.952 716.664 55.952C722.467 55.952 727.245 57.4027 731 60.304C734.84 63.12 737.656 67.0453 739.448 72.08C741.24 77.1147 742.136 83.0027 742.136 89.744C742.136 96.4 741.24 102.245 739.448 107.28C737.656 112.315 734.84 116.24 731 119.056C727.245 121.872 722.467 123.28 716.664 123.28ZM719.352 114.32C725.837 114.32 730.616 112.187 733.688 107.92C736.76 103.653 738.296 97.5947 738.296 89.744C738.296 81.808 736.76 75.7067 733.688 71.44C730.616 67.1733 725.837 65.04 719.352 65.04C712.525 65.04 707.491 67.1733 704.248 71.44C701.005 75.7067 699.384 81.808 699.384 89.744C699.384 97.5947 701.005 103.653 704.248 107.92C707.491 112.187 712.525 114.32 719.352 114.32ZM769.758 85.008H813.278C813.193 78.352 811.614 73.3173 808.542 69.904C805.555 66.4907 800.99 64.784 794.846 64.784C788.019 64.784 783.027 66.8747 779.87 71.056C776.713 75.152 775.134 81.2533 775.134 89.36C775.134 97.6373 776.67 103.909 779.742 108.176C782.899 112.357 788.233 114.448 795.742 114.448C800.777 114.448 804.446 113.637 806.75 112.016C809.054 110.395 810.633 108.219 811.486 105.488H822.622C821.769 108.901 820.233 111.973 818.014 114.704C815.795 117.349 812.851 119.44 809.182 120.976C805.598 122.512 801.118 123.28 795.742 123.28C785.502 123.28 777.737 120.336 772.446 114.448C767.241 108.56 764.638 100.283 764.638 89.616C764.638 78.7787 767.241 70.4587 772.446 64.656C777.737 58.8533 785.203 55.952 794.846 55.952C800.137 55.952 804.958 57.0613 809.31 59.28C813.662 61.4987 817.161 65.04 819.806 69.904C822.451 74.768 823.774 81.296 823.774 89.488V93.072H769.63L769.758 85.008ZM864.025 122H853.017L828.313 57.36H839.193L858.137 110.864H858.905L877.977 57.36H888.857L864.025 122Z" fill="#20C6D4"/>
<path d="M142.834 85.3002C142.835 89.2437 143.092 92.0564 142.792 94.8115C141.679 105.021 146.876 108.396 156.596 107.633C161.447 107.252 166.356 107.567 172.107 107.567C172.107 113.066 172.107 118.003 172.107 123.186C171.034 123.404 169.912 123.799 168.777 123.839C128.923 125.252 124.429 121.012 124.429 82.0604C124.429 70.1271 124.429 58.1938 124.429 44.943C117.036 44.943 109.945 44.943 101.905 44.943C101.573 39.0977 101.312 34.5026 101 29C114.632 29 127.871 29 142.834 29C142.834 47.0759 142.834 65.6094 142.834 85.3002Z" fill="white"/>
<path d="M241.888 122H231.904C227.979 122 224.907 120.677 222.688 118.032C220.555 115.387 219.403 112.101 219.232 108.176H222.944C221.323 112.869 218.677 116.581 215.008 119.312C211.424 121.957 206.816 123.28 201.184 123.28C196.491 123.28 192.267 122.555 188.512 121.104C184.843 119.568 181.941 117.307 179.808 114.32C177.675 111.248 176.608 107.365 176.608 102.672C176.608 98.4053 177.419 94.9067 179.04 92.176C180.747 89.36 182.965 87.184 185.696 85.648C188.427 84.112 191.413 83.0453 194.656 82.448C197.899 81.7653 201.099 81.424 204.256 81.424H219.232V77.712C219.232 74.128 218.336 71.4827 216.544 69.776C214.837 67.984 212.064 67.088 208.224 67.088C204.128 67.088 201.227 67.8133 199.52 69.264C197.813 70.7147 196.747 72.9333 196.32 75.92H179.168C179.424 71.312 180.917 67.3867 183.648 64.144C186.379 60.9013 189.92 58.4693 194.272 56.848C198.624 55.1413 203.403 54.288 208.608 54.288C211.424 54.288 214.411 54.6293 217.568 55.312C220.725 55.9947 223.669 57.232 226.4 59.024C229.216 60.816 231.52 63.2907 233.312 66.448C235.104 69.6053 236 73.7013 236 78.736V108.56H241.888V122ZM193.248 101.904C193.248 104.805 194.059 106.981 195.68 108.432C197.301 109.797 199.904 110.48 203.488 110.48C208.523 110.48 212.405 109.285 215.136 106.896C217.867 104.421 219.232 101.093 219.232 96.912V93.072H204.384C200.459 93.072 197.6 93.84 195.808 95.376C194.101 96.8267 193.248 99.0027 193.248 101.904ZM270.606 55.568V122H253.454V55.568H270.606ZM253.07 29.968H270.99V47.632H253.07V29.968ZM320.487 69.008H307.303V108.56H320.487V122H309.735C304.018 122 299.324 120.635 295.655 117.904C291.986 115.088 290.151 110.693 290.151 104.72V69.008H279.911V55.568H290.151V37.008H307.303V55.568H320.487V69.008ZM391.513 122H381.529C377.604 122 374.532 120.677 372.313 118.032C370.18 115.387 369.028 112.101 368.857 108.176H372.569C370.948 112.869 368.302 116.581 364.633 119.312C361.049 121.957 356.441 123.28 350.809 123.28C346.116 123.28 341.892 122.555 338.137 121.104C334.468 119.568 331.566 117.307 329.433 114.32C327.3 111.248 326.233 107.365 326.233 102.672C326.233 98.4053 327.044 94.9067 328.665 92.176C330.372 89.36 332.59 87.184 335.321 85.648C338.052 84.112 341.038 83.0453 344.281 82.448C347.524 81.7653 350.724 81.424 353.881 81.424H368.857V77.712C368.857 74.128 367.961 71.4827 366.169 69.776C364.462 67.984 361.689 67.088 357.849 67.088C353.753 67.088 350.852 67.8133 349.145 69.264C347.438 70.7147 346.372 72.9333 345.945 75.92H328.793C329.049 71.312 330.542 67.3867 333.273 64.144C336.004 60.9013 339.545 58.4693 343.897 56.848C348.249 55.1413 353.028 54.288 358.233 54.288C361.049 54.288 364.036 54.6293 367.193 55.312C370.35 55.9947 373.294 57.232 376.025 59.024C378.841 60.816 381.145 63.2907 382.937 66.448C384.729 69.6053 385.625 73.7013 385.625 78.736V108.56H391.513V122ZM342.873 101.904C342.873 104.805 343.684 106.981 345.305 108.432C346.926 109.797 349.529 110.48 353.113 110.48C358.148 110.48 362.03 109.285 364.761 106.896C367.492 104.421 368.857 101.093 368.857 96.912V93.072H354.009C350.084 93.072 347.225 93.84 345.433 95.376C343.726 96.8267 342.873 99.0027 342.873 101.904ZM420.487 122H403.335V55.568H420.487L420.359 63.376C422.322 60.2187 424.668 57.9147 427.399 56.464C430.13 55.0133 433.543 54.288 437.639 54.288C445.148 54.288 451.164 56.3787 455.687 60.56C460.295 64.7413 462.599 71.6533 462.599 81.296V122H445.447V81.168C445.447 76.3893 444.466 72.976 442.503 70.928C440.626 68.7947 437.767 67.728 433.927 67.728C430.94 67.728 428.423 68.2827 426.375 69.392C424.412 70.416 422.919 72.0373 421.895 74.256C420.956 76.4747 420.487 79.376 420.487 82.96V122ZM509.144 123.28C498.904 123.28 490.755 120.336 484.696 114.448C478.723 108.475 475.736 99.9413 475.736 88.848C475.736 77.7547 478.765 69.2213 484.824 63.248C490.883 57.2747 498.989 54.288 509.144 54.288C515.885 54.288 521.731 55.6533 526.68 58.384C531.715 61.0293 535.64 64.912 538.456 70.032C541.272 75.152 542.68 81.424 542.68 88.848C542.68 99.9413 539.608 108.475 533.464 114.448C527.405 120.336 519.299 123.28 509.144 123.28ZM509.144 109.84C514.691 109.84 518.787 108.133 521.432 104.72C524.163 101.221 525.528 95.9307 525.528 88.848C525.528 81.7653 524.163 76.4747 521.432 72.976C518.787 69.4773 514.691 67.728 509.144 67.728C503.683 67.728 499.587 69.4773 496.856 72.976C494.211 76.4747 492.888 81.7653 492.888 88.848C492.888 95.9307 494.211 101.221 496.856 104.72C499.587 108.133 503.683 109.84 509.144 109.84ZM574.127 55.568V147.856H556.975V55.568H574.127ZM595.247 123.28C588.676 123.28 583.343 121.787 579.247 118.8C575.236 115.728 572.335 111.632 570.543 106.512C568.751 101.307 567.855 95.4613 567.855 88.976C567.855 82.4053 568.751 76.5173 570.543 71.312C572.335 66.1067 575.236 61.968 579.247 58.896C583.343 55.824 588.676 54.288 595.247 54.288C600.367 54.288 605.06 55.4827 609.327 57.872C613.594 60.2613 617.007 64.016 619.567 69.136C622.127 74.1707 623.407 80.784 623.407 88.976C623.407 100.325 620.804 108.901 615.599 114.704C610.394 120.421 603.61 123.28 595.247 123.28ZM589.999 109.968C595.46 109.968 599.514 108.219 602.159 104.72C604.89 101.221 606.255 95.9307 606.255 88.848C606.255 81.7653 604.89 76.4747 602.159 72.976C599.514 69.392 595.46 67.6 589.999 67.6C584.708 67.6 580.74 69.392 578.095 72.976C575.45 76.4747 574.127 81.7653 574.127 88.848C574.127 95.9307 575.45 101.221 578.095 104.72C580.74 108.219 584.708 109.968 589.999 109.968Z" fill="white"/>
<circle cx="657" cy="112" r="10" fill="#20C6D4"/>
<line x1="892" y1="114.5" x2="948" y2="114.5" stroke="#20C6D4" stroke-opacity="0.8" stroke-width="15"/>
</svg>
