<svg width="100" height="100" viewBox="0 0 100 100" fill="none" xmlns="http://www.w3.org/2000/svg">
<path d="M0 5C0 2.23858 2.23858 0 5 0H95C97.7614 0 100 2.23858 100 5V95C100 97.7614 97.7614 100 95 100H5C2.23858 100 0 97.7614 0 95V5Z" fill="#26262D"/>
<path d="M37.7404 23.7604L4.59454 73.9151C4.15253 74.5839 4.63777 75.4749 5.4394 75.4664L25.5337 75.2537C25.8603 75.2502 26.1646 75.0874 26.3489 74.8177L51.1671 38.4802L39.3562 23.6878C38.9326 23.1572 38.1147 23.194 37.7404 23.7604Z" fill="#20C6D4" fill-opacity="0.8"/>
<path d="M95.2035 76.5169L75.5961 76.7244C75.2685 76.7279 74.9599 76.5707 74.7702 76.3035L38.1107 24.6887C37.6432 24.0305 38.1081 23.1183 38.9154 23.1097L60.5022 22.8812L96.019 74.9534C96.469 75.6133 96.0021 76.5084 95.2035 76.5169Z" fill="#20C6D4"/>
</svg>
