<svg width="100" height="100" viewBox="0 0 100 100" fill="none" xmlns="http://www.w3.org/2000/svg">
<path d="M0 5C0 2.23858 2.23858 0 5 0H95C97.7614 0 100 2.23858 100 5V95C100 97.7614 97.7614 100 95 100H5C2.23858 100 0 97.7614 0 95V5Z" fill="#FEFFFE"/>
<path d="M37.7399 23.7613L4.59405 73.9161C4.15205 74.5849 4.63728 75.4759 5.43891 75.4674L25.5332 75.2546C25.8598 75.2512 26.1642 75.0884 26.3484 74.8187L51.1666 38.4812L39.3557 23.6887C38.9321 23.1582 38.1142 23.195 37.7399 23.7613Z" fill="#20C6D4" fill-opacity="0.8"/>
<path d="M95.203 76.5169L75.5956 76.7244C75.268 76.7279 74.9595 76.5707 74.7697 76.3035L38.1102 24.6887C37.6427 24.0305 38.1076 23.1183 38.9149 23.1097L60.5017 22.8812L96.0185 74.9534C96.4686 75.6133 96.0016 76.5084 95.203 76.5169Z" fill="#20C6D4"/>
</svg>
