<svg width="1352" height="492" viewBox="0 0 1352 492" fill="none" xmlns="http://www.w3.org/2000/svg">
<path d="M0 0H1352V492H0V0Z" fill="#26262D"/>
<path d="M210.74 220.761L177.594 270.916C177.152 271.585 177.638 272.476 178.439 272.467L198.533 272.255C198.86 272.251 199.164 272.088 199.349 271.819L224.167 235.481L212.356 220.689C211.932 220.158 211.114 220.195 210.74 220.761Z" fill="#20C6D4" fill-opacity="0.8"/>
<path d="M268.203 273.517L248.596 273.724C248.268 273.728 247.96 273.571 247.77 273.304L211.111 221.689C210.643 221.031 211.108 220.118 211.915 220.11L233.502 219.881L269.019 271.953C269.469 272.613 269.002 273.508 268.203 273.517Z" fill="#20C6D4"/>
<path d="M914.296 202.224H924.792V294H914.296V202.224ZM892.664 295.28C883.875 295.28 877.048 292.421 872.184 286.704C867.32 280.987 864.888 272.667 864.888 261.744C864.888 254.235 865.997 248.005 868.216 243.056C870.435 238.021 873.635 234.267 877.816 231.792C881.997 229.232 886.947 227.952 892.664 227.952C898.467 227.952 903.245 229.403 907 232.304C910.84 235.12 913.656 239.045 915.448 244.08C917.24 249.115 918.136 255.003 918.136 261.744C918.136 268.4 917.24 274.245 915.448 279.28C913.656 284.315 910.84 288.24 907 291.056C903.245 293.872 898.467 295.28 892.664 295.28ZM895.352 286.32C901.837 286.32 906.616 284.187 909.688 279.92C912.76 275.653 914.296 269.595 914.296 261.744C914.296 253.808 912.76 247.707 909.688 243.44C906.616 239.173 901.837 237.04 895.352 237.04C888.525 237.04 883.491 239.173 880.248 243.44C877.005 247.707 875.384 253.808 875.384 261.744C875.384 269.595 877.005 275.653 880.248 279.92C883.491 284.187 888.525 286.32 895.352 286.32ZM945.758 257.008H989.278C989.193 250.352 987.614 245.317 984.542 241.904C981.555 238.491 976.99 236.784 970.846 236.784C964.019 236.784 959.027 238.875 955.87 243.056C952.713 247.152 951.134 253.253 951.134 261.36C951.134 269.637 952.67 275.909 955.742 280.176C958.899 284.357 964.233 286.448 971.742 286.448C976.777 286.448 980.446 285.637 982.75 284.016C985.054 282.395 986.633 280.219 987.486 277.488H998.622C997.769 280.901 996.233 283.973 994.014 286.704C991.795 289.349 988.851 291.44 985.182 292.976C981.598 294.512 977.118 295.28 971.742 295.28C961.502 295.28 953.737 292.336 948.446 286.448C943.241 280.56 940.638 272.283 940.638 261.616C940.638 250.779 943.241 242.459 948.446 236.656C953.737 230.853 961.203 227.952 970.846 227.952C976.137 227.952 980.958 229.061 985.31 231.28C989.662 233.499 993.161 237.04 995.806 241.904C998.451 246.768 999.774 253.296 999.774 261.488V265.072H945.63L945.758 257.008ZM1040.03 294H1029.02L1004.31 229.36H1015.19L1034.14 282.864H1034.91L1053.98 229.36H1064.86L1040.03 294Z" fill="#20C6D4"/>
<path d="M318.834 257.3C318.835 261.244 319.092 264.056 318.792 266.812C317.679 277.021 322.876 280.396 332.596 279.633C337.447 279.252 342.356 279.567 348.107 279.567C348.107 285.066 348.107 290.003 348.107 295.186C347.034 295.404 345.912 295.799 344.777 295.839C304.923 297.252 300.429 293.012 300.429 254.06C300.429 242.127 300.429 230.194 300.429 216.943C293.036 216.943 285.945 216.943 277.905 216.943C277.573 211.098 277.312 206.503 277 201C290.632 201 303.871 201 318.834 201C318.834 219.076 318.834 237.609 318.834 257.3Z" fill="white"/>
<path d="M417.888 294H407.904C403.979 294 400.907 292.677 398.688 290.032C396.555 287.387 395.403 284.101 395.232 280.176H398.944C397.323 284.869 394.677 288.581 391.008 291.312C387.424 293.957 382.816 295.28 377.184 295.28C372.491 295.28 368.267 294.555 364.512 293.104C360.843 291.568 357.941 289.307 355.808 286.32C353.675 283.248 352.608 279.365 352.608 274.672C352.608 270.405 353.419 266.907 355.04 264.176C356.747 261.36 358.965 259.184 361.696 257.648C364.427 256.112 367.413 255.045 370.656 254.448C373.899 253.765 377.099 253.424 380.256 253.424H395.232V249.712C395.232 246.128 394.336 243.483 392.544 241.776C390.837 239.984 388.064 239.088 384.224 239.088C380.128 239.088 377.227 239.813 375.52 241.264C373.813 242.715 372.747 244.933 372.32 247.92H355.168C355.424 243.312 356.917 239.387 359.648 236.144C362.379 232.901 365.92 230.469 370.272 228.848C374.624 227.141 379.403 226.288 384.608 226.288C387.424 226.288 390.411 226.629 393.568 227.312C396.725 227.995 399.669 229.232 402.4 231.024C405.216 232.816 407.52 235.291 409.312 238.448C411.104 241.605 412 245.701 412 250.736V280.56H417.888V294ZM369.248 273.904C369.248 276.805 370.059 278.981 371.68 280.432C373.301 281.797 375.904 282.48 379.488 282.48C384.523 282.48 388.405 281.285 391.136 278.896C393.867 276.421 395.232 273.093 395.232 268.912V265.072H380.384C376.459 265.072 373.6 265.84 371.808 267.376C370.101 268.827 369.248 271.003 369.248 273.904ZM446.606 227.568V294H429.454V227.568H446.606ZM429.07 201.968H446.99V219.632H429.07V201.968ZM496.487 241.008H483.303V280.56H496.487V294H485.735C480.018 294 475.324 292.635 471.655 289.904C467.986 287.088 466.151 282.693 466.151 276.72V241.008H455.911V227.568H466.151V209.008H483.303V227.568H496.487V241.008ZM567.513 294H557.529C553.604 294 550.532 292.677 548.313 290.032C546.18 287.387 545.028 284.101 544.857 280.176H548.569C546.948 284.869 544.302 288.581 540.633 291.312C537.049 293.957 532.441 295.28 526.809 295.28C522.116 295.28 517.892 294.555 514.137 293.104C510.468 291.568 507.566 289.307 505.433 286.32C503.3 283.248 502.233 279.365 502.233 274.672C502.233 270.405 503.044 266.907 504.665 264.176C506.372 261.36 508.59 259.184 511.321 257.648C514.052 256.112 517.038 255.045 520.281 254.448C523.524 253.765 526.724 253.424 529.881 253.424H544.857V249.712C544.857 246.128 543.961 243.483 542.169 241.776C540.462 239.984 537.689 239.088 533.849 239.088C529.753 239.088 526.852 239.813 525.145 241.264C523.438 242.715 522.372 244.933 521.945 247.92H504.793C505.049 243.312 506.542 239.387 509.273 236.144C512.004 232.901 515.545 230.469 519.897 228.848C524.249 227.141 529.028 226.288 534.233 226.288C537.049 226.288 540.036 226.629 543.193 227.312C546.35 227.995 549.294 229.232 552.025 231.024C554.841 232.816 557.145 235.291 558.937 238.448C560.729 241.605 561.625 245.701 561.625 250.736V280.56H567.513V294ZM518.873 273.904C518.873 276.805 519.684 278.981 521.305 280.432C522.926 281.797 525.529 282.48 529.113 282.48C534.148 282.48 538.03 281.285 540.761 278.896C543.492 276.421 544.857 273.093 544.857 268.912V265.072H530.009C526.084 265.072 523.225 265.84 521.433 267.376C519.726 268.827 518.873 271.003 518.873 273.904ZM596.487 294H579.335V227.568H596.487L596.359 235.376C598.322 232.219 600.668 229.915 603.399 228.464C606.13 227.013 609.543 226.288 613.639 226.288C621.148 226.288 627.164 228.379 631.687 232.56C636.295 236.741 638.599 243.653 638.599 253.296V294H621.447V253.168C621.447 248.389 620.466 244.976 618.503 242.928C616.626 240.795 613.767 239.728 609.927 239.728C606.94 239.728 604.423 240.283 602.375 241.392C600.412 242.416 598.919 244.037 597.895 246.256C596.956 248.475 596.487 251.376 596.487 254.96V294ZM685.144 295.28C674.904 295.28 666.755 292.336 660.696 286.448C654.723 280.475 651.736 271.941 651.736 260.848C651.736 249.755 654.765 241.221 660.824 235.248C666.883 229.275 674.989 226.288 685.144 226.288C691.885 226.288 697.731 227.653 702.68 230.384C707.715 233.029 711.64 236.912 714.456 242.032C717.272 247.152 718.68 253.424 718.68 260.848C718.68 271.941 715.608 280.475 709.464 286.448C703.405 292.336 695.299 295.28 685.144 295.28ZM685.144 281.84C690.691 281.84 694.787 280.133 697.432 276.72C700.163 273.221 701.528 267.931 701.528 260.848C701.528 253.765 700.163 248.475 697.432 244.976C694.787 241.477 690.691 239.728 685.144 239.728C679.683 239.728 675.587 241.477 672.856 244.976C670.211 248.475 668.888 253.765 668.888 260.848C668.888 267.931 670.211 273.221 672.856 276.72C675.587 280.133 679.683 281.84 685.144 281.84ZM750.127 227.568V319.856H732.975V227.568H750.127ZM771.247 295.28C764.676 295.28 759.343 293.787 755.247 290.8C751.236 287.728 748.335 283.632 746.543 278.512C744.751 273.307 743.855 267.461 743.855 260.976C743.855 254.405 744.751 248.517 746.543 243.312C748.335 238.107 751.236 233.968 755.247 230.896C759.343 227.824 764.676 226.288 771.247 226.288C776.367 226.288 781.06 227.483 785.327 229.872C789.594 232.261 793.007 236.016 795.567 241.136C798.127 246.171 799.407 252.784 799.407 260.976C799.407 272.325 796.804 280.901 791.599 286.704C786.394 292.421 779.61 295.28 771.247 295.28ZM765.999 281.968C771.46 281.968 775.514 280.219 778.159 276.72C780.89 273.221 782.255 267.931 782.255 260.848C782.255 253.765 780.89 248.475 778.159 244.976C775.514 241.392 771.46 239.6 765.999 239.6C760.708 239.6 756.74 241.392 754.095 244.976C751.45 248.475 750.127 253.765 750.127 260.848C750.127 267.931 751.45 273.221 754.095 276.72C756.74 280.219 760.708 281.968 765.999 281.968Z" fill="white"/>
<circle cx="833" cy="284" r="10" fill="#20C6D4"/>
<line x1="1068" y1="286.5" x2="1124" y2="286.5" stroke="#20C6D4" stroke-opacity="0.8" stroke-width="15"/>
</svg>
